<?xml version="1.0" encoding="UTF-8"?>
<svg version="1.1" xmlns="http://www.w3.org/2000/svg" width="1024" height="1024" viewBox="0 0 1024 1024">
<rect x="0" y="0" width="1024" height="1024" fill="#FFFFFF" />
<path d="M0,0 L38,0 L59,3 L71,7 L82,13 L90,22 L94,31 L95,36 L95,60 L99,73 L107,85 L122,100 L133,109 L150,125 L157,132 L166,143 L174,154 L182,168 L182,168 L188,183 L192,201 L192,229 L189,245 L182,264 L173,280 L163,293 L162,290 L166,277 L168,265 L168,256 L162,272 L154,287 L144,301 L131,315 L121,323 L121,320 L131,304 L139,287 L145,268 L148,251 L148,229 L144,209 L138,193 L129,177 L120,165 L111,155 L97,141 L86,132 L78,124 L70,117 L59,103 L51,89 L45,73 L42,57 L41,46 L29,44 L7,44 L-8,47 L-12,50 L-15,73 L-20,88 L-28,102 L-39,116 L-50,128 L-70,148 L-77,156 L-86,166 L-96,181 L-104,198 L-108,213 L-109,221 L-109,238 L-106,258 L-98,282 L-90,299 L-76,321 L-67,333 L-58,344 L-46,358 L-33,371 L-33,373 L-29,375 L7,411 L15,418 L19,422 L23,420 L32,411 L40,404 L54,391 L65,382 L79,370 L95,358 L111,347 L126,338 L143,329 L163,321 L183,315 L207,311 L244,311 L268,315 L292,323 L311,333 L323,342 L337,354 L348,367 L357,381 L365,398 L370,414 L373,432 L373,463 L370,481 L364,501 L356,518 L346,533 L337,544 L323,558 L308,569 L290,579 L283,582 L279,582 L281,564 L295,554 L305,545 L311,538 L299,547 L286,555 L281,556 L280,535 L279,523 L290,513 L300,500 L309,483 L314,466 L315,460 L315,435 L311,418 L303,401 L295,391 L290,386 L282,379 L271,373 L260,368 L245,364 L224,362 L205,363 L185,367 L165,374 L143,385 L122,398 L105,411 L95,419 L81,431 L68,443 L58,452 L54,456 L56,460 L74,478 L82,485 L97,498 L114,511 L127,520 L145,531 L162,539 L182,545 L192,547 L213,549 L212,564 L210,575 L201,575 L182,572 L162,566 L148,561 L164,569 L181,576 L198,580 L208,582 L205,594 L192,594 L170,590 L150,584 L129,575 L111,565 L92,552 L74,538 L63,529 L49,517 L39,508 L27,497 L20,490 L14,494 L4,504 L-4,511 L-17,523 L-28,532 L-41,543 L-57,555 L-78,569 L-97,580 L-116,589 L-143,598 L-164,602 L-174,603 L-203,603 L-223,600 L-242,595 L-259,588 L-274,580 L-290,568 L-302,557 L-312,546 L-324,528 L-332,512 L-337,497 L-341,477 L-341,448 L-338,431 L-331,410 L-322,393 L-310,377 L-295,362 L-278,350 L-266,343 L-246,335 L-226,330 L-224,330 L-224,332 L-243,341 L-254,349 L-264,358 L-268,363 L-252,355 L-239,350 L-219,346 L-192,346 L-172,350 L-156,356 L-137,366 L-126,374 L-128,375 L-146,369 L-161,366 L-180,365 L-199,367 L-216,372 L-232,380 L-243,387 L-253,396 L-262,407 L-271,422 L-277,438 L-280,452 L-280,473 L-277,487 L-272,500 L-266,511 L-258,521 L-248,531 L-232,541 L-218,547 L-200,551 L-182,552 L-162,550 L-145,546 L-124,538 L-101,526 L-80,512 L-64,500 L-50,488 L-36,476 L-23,464 L-15,457 L-17,453 L-24,446 L-26,445 L-26,443 L-30,441 L-47,424 L-55,417 L-87,385 L-94,377 L-104,366 L-112,356 L-122,343 L-134,325 L-144,307 L-153,287 L-160,263 L-163,244 L-163,214 L-159,194 L-154,179 L-146,162 L-134,144 L-125,133 L-113,120 L-103,110 L-95,103 L-83,92 L-73,81 L-63,66 L-58,53 L-55,36 L-51,26 L-42,16 L-35,10 L-21,4 L-8,1 Z " fill="#0A1F4A" transform="translate(496,128)"/>
<path d="M0,0 L6,2 L22,11 L36,21 L49,33 L57,41 L64,50 L56,34 L46,19 L43,14 L47,16 L62,31 L72,44 L81,58 L91,77 L99,98 L104,116 L108,138 L109,147 L109,183 L106,204 L100,228 L92,248 L81,269 L73,281 L63,294 L51,307 L40,318 L26,329 L13,338 L-4,348 L-20,356 L-46,366 L-67,372 L-91,377 L-117,380 L-165,380 L-192,377 L-219,372 L-245,365 L-266,357 L-282,349 L-297,340 L-309,331 L-321,320 L-332,309 L-343,294 L-353,277 L-360,261 L-366,242 L-364,242 L-356,254 L-347,265 L-336,277 L-322,289 L-320,289 L-326,280 L-332,267 L-332,267 L-336,254 L-338,242 L-338,227 L-335,230 L-327,246 L-320,257 L-310,270 L-293,287 L-280,297 L-267,305 L-248,315 L-227,323 L-204,329 L-180,333 L-152,335 L-136,335 L-111,333 L-85,328 L-59,320 L-41,312 L-20,301 L-3,289 L8,280 L25,263 L35,250 L43,237 L51,221 L57,205 L62,184 L64,166 L64,148 L61,122 L55,98 L48,78 L39,58 L30,41 L18,23 L5,7 Z " fill="#0A1F4A" transform="translate(656,516)"/>
<path d="M0,0 L2,1 L-12,16 L-32,36 L-35,35 L-19,18 L-10,9 L-2,2 Z " fill="#0A1F4A" transform="translate(403,229)"/>
<path d="M0,0 L2,0 L2,2 L-16,10 L-16,7 L-20,5 Z " fill="#0A1F4A" transform="translate(270,458)"/>
<path d="M0,0 L17,1 L17,3 L45,3 L45,4 L16,4 L1,2 Z " fill="#0A1F4A" transform="translate(277,727)"/>
<path d="M0,0 L5,1 L16,9 L14,10 L0,5 Z " fill="#0A1F4A" transform="translate(354,493)"/>
<path d="M0,0 L4,2 L14,12 L10,15 L0,1 Z " fill="#0A1F4A" transform="translate(699,530)"/>
<path d="M0,0 L2,0 L1,14 L-3,18 L-2,10 Z " fill="#0A1F4A" transform="translate(718,700)"/>
<path d="M0,0 L2,0 L8,9 L8,11 L5,11 L4,13 Z " fill="#0A1F4A" transform="translate(290,758)"/>
<path d="M0,0 L2,0 L2,2 L-7,6 L-9,6 L-9,4 L-13,3 Z " fill="#0A1F4A" transform="translate(270,458)"/>
<path d="M0,0 L4,0 L4,2 L-3,4 L-4,5 L-11,4 L-8,2 Z " fill="#0A1F4A" transform="translate(679,443)"/>
<path d="M0,0 L1,2 L3,2 L1,6 L-5,11 L-5,8 Z " fill="#0A1F4A" transform="translate(622,440)"/>
<path d="M0,0 L2,1 L-5,9 L-10,12 L-12,11 Z " fill="#0A1F4A" transform="translate(463,601)"/>
<path d="M0,0 L2,2 L2,7 L-3,12 L-1,3 Z " fill="#0A1F4A" transform="translate(661,409)"/>
<path d="M0,0 L5,2 L10,7 L0,4 Z " fill="#0A1F4A" transform="translate(360,496)"/>
<path d="M0,0 L4,0 L7,6 L6,8 L1,3 Z " fill="#0A1F4A" transform="translate(718,566)"/>
<path d="M0,0 L7,6 L7,9 L0,3 Z " fill="#0A1F4A" transform="translate(478,515)"/>
<path d="M0,0 L6,2 L8,4 L5,7 Z " fill="#0A1F4A" transform="translate(656,516)"/>
<path d="M0,0 L2,1 L-5,9 L-7,9 L-5,5 Z " fill="#0A1F4A" transform="translate(403,229)"/>
<path d="M0,0 L9,2 L9,3 L1,3 L-6,2 L-6,1 Z " fill="#0A1F4A" transform="translate(687,719)"/>
<path d="M0,0 L0,3 L-4,8 L-7,7 Z " fill="#0A1F4A" transform="translate(196,495)"/>
<path d="M0,0 L6,0 L9,3 L0,2 Z " fill="#0A1F4A" transform="translate(670,717)"/>
<path d="M0,0 L2,1 L-3,6 L-5,7 L-6,4 Z " fill="#0A1F4A" transform="translate(784,687)"/>
<path d="M0,0 L4,2 L7,6 L4,6 L0,2 Z " fill="#0A1F4A" transform="translate(458,559)"/>
<path d="M0,0 L4,2 L7,6 L4,6 L0,2 Z " fill="#0A1F4A" transform="translate(601,275)"/>
<path d="M0,0 L1,3 L-5,8 L-7,7 Z " fill="#0A1F4A" transform="translate(675,785)"/>
<path d="M0,0 L4,2 L7,6 L5,8 Z " fill="#0A1F4A" transform="translate(699,530)"/>
</svg>
